# xmcd
#
# Track frame offsets:
#	150
#	17623
#	31882
#	52404
#	72241
#	82991
#	100709
#	114048
#
# Disc length: 1733 seconds
#
# Revision: 1
# Processed by: cddbd v1.5.1PL2 Copyright (c) Steve Scherf et al.
# Submitted via: audiograbber 1.83.01
#
DISCID=5906c308
DTITLE=Brushwood - Make A Song And Dance About It
DYEAR=1900
DGENRE=Country
TTITLE0=Brushwood - Open Season On My Heart
TTITLE1=Brushwood - Just To See You Smile
TTITLE2=Brushwood - But For The Grace Of God
TTITLE3=Brushwood - Remember When
TTITLE4=Brushwood - Singin' The Blues
TTITLE5=Brushwood - I Hope You Dance
TTITLE6=Brushwood - We Work It Out
TTITLE7=Brushwood - Stuck On You
EXTD=
EXTT0=
EXTT1=
EXTT2=
EXTT3=
EXTT4=
EXTT5=
EXTT6=
EXTT7=
PLAYORDER=
